<svg width="322" height="323" xmlns="http://www.w3.org/2000/svg">

 <g>
  <title>background</title>
  <rect fill="none" id="canvas_background" height="325" width="324" y="-1" x="-1"/>
 </g>
 <g>
  <title>Layer 1</title>
  <g id="svg_1">
   <path id="svg_3" d="m160.8,129.8c0,0 0.4,0 0,0c48.4,36.8 130.4,127.2 105.6,152.8c-28.4,24.8 -65.2,39.6 -105.6,39.6s-77.6,-14.8 -105.6,-39.6c-25.2,-25.6 57.2,-116 105.2,-152.4c0,-0.4 0.4,-0.4 0.4,-0.4zm83.6,-105.2c-24.4,-14.8 -51.2,-23.6 -83.6,-23.6s-59.2,8.8 -83.6,23.6c-0.4,0 -0.4,0.4 -0.4,0.8s0.4,0.4 0.8,0.4c31.2,-6.8 78.4,20 82.8,22.8l0.4,0l0.4,0c4.4,-2.8 51.6,-29.6 82.8,-22.8c0.4,0 0.8,0 0.8,-0.4s0,-0.8 -0.4,-0.8l0,0zm-196,22.4c-0.4,0 -0.4,0.4 -0.8,0.4c-29.2,29.2 -47.2,69.6 -47.2,114c0,36.4 12.4,70.4 32.8,97.2c0,0.4 0.4,0.4 0.8,0.4s0.4,-0.4 0,-0.8c-12.4,-38 50.4,-129.6 82.8,-168l0.4,-0.4c0,-0.4 0,-0.4 -0.4,-0.4c-49.2,-48.8 -65.6,-43.6 -68.4,-42.4zm156.4,42l-0.4,0.4c0,0 0,0.4 0.4,0.4c32.4,38.4 94.8,130 82.8,168l0,0.8c0.4,0 0.8,0 0.8,-0.4c20.4,-26.8 32.8,-60.8 32.8,-97.2c0,-44.4 -18,-84.8 -47.6,-114c-0.4,-0.4 -0.4,-0.4 -0.8,-0.4c-2.4,-0.8 -18.8,-6 -68,42.4z"/>
  </g>
 </g>
</svg>